# AST/ASF file generated using VICON BodyLanguage
# -----------------------------------------------
:version 1.10
:name VICON
:units
  mass 1.0
  length 0.45
  angle deg
:documentation
   .ast/.asf automatically generated from VICON data using
   VICON BodyBuilder and BodyLanguage model FoxedUp or BRILLIANT.MOD
:root
   order TX TY TZ RX RY RZ
   axis XYZ
   position 0 0 0  
   orientation 0 0 0 
:bonedata
  begin
     id 1 
     name lhipjoint
     direction 0.521452 -0.77106 0.36545 
     length 2.0933 
     axis 0 0 0  XYZ
  end
  begin
     id 2 
     name lfemur
     direction 0.34202 -0.939693 0  
     length 6.83441  
     axis 0 0 20  XYZ
    dof rx ry rz
    limits (-160.0 20.0)
           (-70.0 70.0)
           (-60.0 70.0)
  end
  begin
     id 3 
     name ltibia
     direction 0.34202 -0.939693 0   
     length 7.28749   
     axis 0 0 20   XYZ
    dof rx
    limits (-10.0 170.0)
  end
  begin
     id 4 
     name lfoot
     direction 0.100608 -0.276418 0.955757   
     length 1.52195   
     axis -90 7.62852e-016 20   XYZ
    dof rx rz
    limits (-45.0 90.0)
           (-70.0 20.0)
  end
  begin
     id 5 
     name ltoes
     direction 1.53558e-011 -4.21907e-011 1   
     length 0.770459   
     axis -90 7.62852e-016 20   XYZ
    dof rx
    limits (-90.0 20.0)
  end
  begin
     id 6 
     name rhipjoint
     direction -0.488071 -0.788702 0.373812   
     length 2.04648  
     axis 0 0 0  XYZ 
  end
  begin
     id 7 
     name rfemur
     direction -0.34202 -0.939693 0   
     length 6.92583   
     axis 0 0 -20   XYZ
    dof rx ry rz
    limits (-160.0 20.0)
           (-70.0 70.0)
           (-70.0 60.0)
  end
  begin
     id 8 
     name rtibia
     direction -0.34202 -0.939693 0   
     length 7.41043   
     axis 0 0 -20   XYZ
    dof rx
    limits (-10.0 170.0)
 end
 begin
     id 9 
     name rfoot
     direction -0.0784433 -0.215521 0.973343   
     length 1.67708  
     axis -90 -7.62852e-016 -20   XYZ
    dof rx rz
    limits (-45.0 90.0)
           (-20.0 70.0)
  end
  begin
     id 10 
     name rtoes
     direction -1.53551e-011 -4.21842e-011 1   
     length 0.849787   
     axis -90 -7.62852e-016 -20   XYZ
    dof rx
    limits (-90.0 20.0)
  end
  begin
     id 11 
     name lowerback
     direction -0.0122332 0.997575 -0.0685192   
     length 1.98724   
     axis 0 0 0   XYZ
    dof rx ry rz
    limits (-20.0 45.0)
           (-30.0 30.0)
           (-30.0 30.0)
  end
  begin
     id 12 
     name upperback
     direction 0.0182347 0.999724 -0.0148421   
     length 1.99029   
     axis 0 0 0   XYZ
    dof rx ry rz
    limits (-20.0 45.0)
           (-30.0 30.0)
           (-30.0 30.0)
  end
  begin
     id 13 
     name thorax
     direction 0.0242908 0.99956 0.0170184   
     length 1.99573   
     axis 0 0 0   XYZ
    dof rx ry rz
    limits (-20.0 45.0)
           (-30.0 30.0)
           (-30.0 30.0)
  end
  begin
     id 14 
     name lowerneck
     direction 0.0654488 0.985533 0.156338   
     length 1.4285   
     axis 0 0 0   XYZ
    dof rx ry rz
    limits (-20.0 45.0)
           (-30.0 30.0)
           (-30.0 30.0)
  end
  begin
     id 15 
     name upperneck
     direction -0.02953 0.998556 -0.0448842   
     length 1.44709   
     axis 0 0 0   XYZ
    dof rx ry rz
    limits (-20.0 45.0)
           (-30.0 30.0)
           (-30.0 30.0)
  end
  begin
     id 16
     name head
     direction -0.0155588 0.999386 -0.0314063  
     length 1.44689  
     axis 0 0 0   XYZ
    dof rx ry rz
    limits (-20.0 45.0)
           (-30.0 30.0)
           (-30.0 30.0)
  end
  begin
     id 17 
     name lclavicle
     direction 0.968229 0.236071 -0.0824755  
     length 3.60593  
     axis 0 0 0   XYZ
    dof ry rz
    limits (-20.0 10.0)
           (0.0 20.0)
  end
  begin
     id 18 
     name lhumerus
     direction 1 -4.48968e-011 7.8138e-029   
     length 5.06035   
     axis 180 -30 -90   XYZ
    dof rx ry rz
    limits (-60.0 90.0)
           (-90.0 90.0)
           (-90.0 90.0)
  end
  begin
     id 19
     name lradius
     direction 1 -4.48967e-011 9.02887e-028   
     length 3.1478   
     axis 180 -30 -90   XYZ
    dof rx
    limits (-10.0 170.0)
  end
  begin
     id 20
     name lwrist
     direction 1 -4.48961e-011 7.20928e-028   
     length 1.5739   
     axis -5.52449e-016 90 90   XYZ
    dof ry
    limits (-180.0 0.0)
 end
  begin
     id 21 
     name lhand
     direction 1 -4.48972e-011 1.44186e-027   
     length 0.606747   
     axis -9.20027e-016 90 90   XYZ
    dof rx rz
    limits (-90.0 90.0)
           (-45.0 45.0)
  end
  begin
     id 22 
     name lfingers
     direction 1 -4.48943e-011 2.88371e-027   
     length 0.489175   
     axis -1.84005e-015 90 90   XYZ
    dof rx
    limits (0.0 90.0)
  end
  begin
     id 23
     name lthumb
     direction 0.707107 -6.34917e-011 0.707107   
     length 0.70236   
     axis -90 45 2.85299e-015   XYZ
    dof rx rz
    limits (-45.0 45.0)
           (-45.0 45.0)
  end
  begin
     id 24 
     name rclavicle
     direction -0.978165 0.207816 0.0022268   
     length 3.35425  
     axis 0 0 0   XYZ 
    dof ry rz
    limits (-10.0 20.0)
           (-20.0 0.0)
  end
  begin
     id 25 
     name rhumerus
     direction -1 -4.48964e-011 -4.02159e-027  
     length 5.12273   
     axis 180 30 90   XYZ
    dof rx ry rz
    limits (-90.0 60.0)
           (-90.0 90.0)
           (-90.0 90.0)
  end
  begin
     id 26 
     name rradius
     direction -1 -4.48966e-011 1.62746e-027   
     length 3.422   
     axis 180 30 90   XYZ
    dof rx
    limits (-10.0 170.0)
  end
  begin
     id 27 
     name rwrist
     direction -1 -4.4896e-011 7.20928e-028   
     length 1.711   
     axis -5.52449e-016 -90 -90   XYZ
    dof ry
    limits (-180.0 0.0)
  end
  begin
     id 28
     name rhand
     direction -1 -4.48979e-011 1.44186e-027   
     length 0.704599   
     axis -9.20027e-016 -90 -90   XYZ
    dof rx rz
    limits (-90.0 90.0)
           (-45.0 45.0)
  end
  begin
     id 29
     name rfingers
     direction -1 -4.48962e-011 2.88371e-027   
     length 0.568066   
     axis -1.84005e-015 -90 -90   XYZ
    dof rx
    limits (0.0 90.0)
  end
  begin
     id 30
     name rthumb
     direction -0.707107 -6.34949e-011 0.707107   
     length 0.815633   
     axis -90 -45 -2.85299e-015   XYZ
    dof rx rz
    limits (-45.0 45.0)
           (-45.0 45.0)
  end
:hierarchy
  begin
    root lhipjoint rhipjoint lowerback
    lhipjoint lfemur
    lfemur ltibia
    ltibia lfoot
    lfoot ltoes
    rhipjoint rfemur
    rfemur rtibia
    rtibia rfoot
    rfoot rtoes
    lowerback upperback
    upperback thorax
    thorax lowerneck lclavicle rclavicle
    lowerneck upperneck
    upperneck head
    lclavicle lhumerus
    lhumerus lradius
    lradius lwrist
    lwrist lhand lthumb
    lhand lfingers
    rclavicle rhumerus
    rhumerus rradius
    rradius rwrist
    rwrist rhand rthumb
    rhand rfingers
  end

#!OML:ASF E:\id_vita\Project 1\Capture day 1\Session 1\Male1.ASF
:FULLY-SPECIFIED
:DEGREES
396
root 0.491833 27.4901 0.141847 -11.9277 86.2649 -20.0927
lowerback 0.591958 0.710274 0.464326
upperback 3.33697 0.958737 1.12293
thorax 3.08168 0.493238 0.914548
lowerneck 2.07444 3.57402 13.1039
upperneck -6.35072 4.85506 -9.19428
head -1.65901 2.40081 -4.98751
rclavicle -1.44119e-014 -3.77691e-015
rhumerus -29.0371 1.29364 -85.2952
rradius 35.3037
rwrist -2.15383
rhand -22.3685 40.9691
rfingers 7.12502
rthumb 4.05293 11.028
lclavicle -1.44119e-014 -3.77691e-015
lhumerus -29.6669 8.01544 80.9612
lradius 23.0517
lwrist -1.53062
lhand -14.1935 42.6002
lfingers 7.12502
lthumb 11.9426 72.2396
rfemur -9.35618 3.54895 22.0811
rtibia 23.5185
rfoot -18.8613 -8.79195
rtoes 1.7599
lfemur -26.5478 -2.82616 -12.3222
ltibia 25.2381
lfoot -10.5311 -0.548904
ltoes 1.20546
397
root 0.543915 27.4922 0.123145 -9.39926 86.0357 -17.5223
lowerback 0.559667 0.731416 0.370518
upperback 3.15592 0.987905 0.959597
thorax 2.91361 0.505611 0.798111
lowerneck 2.7607 3.59539 12.9356
upperneck -6.66972 4.97735 -8.7046
head -1.87188 2.45888 -4.83222
rclavicle -1.63997e-014 -5.96354e-016
rhumerus -29.59 1.26293 -85.5365
rradius 35.1187
rwrist -1.9746
rhand -22.5201 41.1431
rfingers 7.12502
rthumb 3.90658 11.1992
lclavicle -1.63997e-014 -5.96354e-016
lhumerus -29.9465 7.97477 80.8005
lradius 23.0485
lwrist -1.71295
lhand -14.4264 42.7045
lfingers 7.12502
lthumb 11.7179 72.3568
rfemur -8.96483 3.78982 21.8849
rtibia 23.2596
rfoot -18.7491 -8.90815
rtoes 0.852666
lfemur -26.2118 -2.73825 -12.578
ltibia 25.3073
lfoot -10.7962 0.487995
ltoes -4.01438
398
root 0.599015 27.4969 0.102663 -8.13235 85.6422 -16.2964
lowerback 0.147165 0.816103 0.379486
upperback 3.18215 1.09715 0.860353
thorax 3.17419 0.560503 0.700824
lowerneck 3.16099 3.61328 12.628
upperneck -7.19049 5.05097 -8.26644
head -2.10553 2.48926 -4.66897
rclavicle -1.05356e-014 -1.23246e-014
rhumerus -29.7477 1.21146 -85.651
rradius 34.9204
rwrist -1.68681
rhand -22.6 41.4213
rfingers 7.12502
rthumb 3.8294 11.476
lclavicle -1.05356e-014 -1.23246e-014
lhumerus -29.8506 7.8212 80.8518
lradius 23.0102
lwrist -1.57665
lhand -14.9511 42.8872
lfingers 7.12502
lthumb 11.2119 72.5676
rfemur -8.72249 4.12939 21.7711
rtibia 23.0607
rfoot -18.6792 -8.96032
rtoes -0.372268
lfemur -25.9268 -2.57545 -12.6976
ltibia 25.3022
lfoot -11.0204 1.10617
ltoes -6.73526
399
root 0.650179 27.5045 0.0817831 -5.44587 85.3483 -13.7475
lowerback -0.0652961 0.839683 0.20525
upperback 3.03267 1.12877 0.765574
thorax 3.1378 0.571009 0.703614
lowerneck 2.85357 3.59058 12.9068
upperneck -6.57318 4.97504 -8.81161
head -1.85586 2.46369 -4.8608
rclavicle -2.14687e-014 -5.56597e-015
rhumerus -30.1202 1.35209 -85.7387
rradius 34.8556
rwrist -1.45234
rhand -22.4891 41.3717
rfingers 7.12502
rthumb 3.93649 11.4283
lclavicle -2.14687e-014 -5.56597e-015
lhumerus -30.0121 7.83043 80.8592
lradius 23.0671
lwrist -1.43855
lhand -15.7248 42.5482
lfingers 7.12502
lthumb 10.4656 72.2677
rfemur -8.66033 4.22078 21.4753
rtibia 22.899
rfoot -18.6262 -8.8292
rtoes -2.00367
lfemur -25.81 -2.25621 -13.0079
ltibia 25.2522
lfoot -11.1107 0.924181
ltoes -6.47688
400
root 0.698012 27.5124 0.0617635 -2.13231 85.1894 -10.401
lowerback -0.145826 0.837117 -0.0791137
upperback 3.1977 1.13616 0.595117
thorax 3.35172 0.569542 0.691421
lowerneck 1.91207 3.77706 12.8722
upperneck -6.1127 5.13318 -8.6074
head -1.55609 2.52882 -4.7599
rclavicle -4.79568e-015 5.86415e-015
rhumerus -29.7599 1.21981 -85.8261
rradius 34.5188
rwrist -1.28882
rhand -22.3427 41.1782
rfingers 7.12502
rthumb 4.07784 11.2374
lclavicle -4.79568e-015 5.86415e-015
lhumerus -29.4784 8.02855 80.8276
lradius 22.9965
lwrist -1.56402
lhand -16.2982 42.0087
lfingers 7.12502
lthumb 9.91242 71.7554
rfemur -8.43517 4.14803 21.0887
rtibia 22.7789
rfoot -18.6566 -8.52587
rtoes -2.30318
lfemur -25.5507 -2.02263 -13.4399
ltibia 25.1723
lfoot -11.1274 0.58698
ltoes -5.30697
